<svg xmlns="http://www.w3.org/2000/svg" viewBox="0 0 512 512">
  <defs>
    <linearGradient id="g" x1="0" y1="0" x2="1" y2="1">
      <stop offset="0" stop-color="#ff8a2b"/>
      <stop offset="1" stop-color="#e23b2e"/>
    </linearGradient>
  </defs>
  <rect width="512" height="512" rx="112" fill="url(#g)"/>
  <!-- 忍者護額 metal band -->
  <rect x="70" y="196" width="372" height="120" rx="26" fill="#e9edf2"/>
  <rect x="70" y="196" width="372" height="120" rx="26" fill="none" stroke="#aeb7c2" stroke-width="6"/>
  <circle cx="96" cy="220" r="8" fill="#9aa4b0"/>
  <circle cx="416" cy="220" r="8" fill="#9aa4b0"/>
  <circle cx="96" cy="292" r="8" fill="#9aa4b0"/>
  <circle cx="416" cy="292" r="8" fill="#9aa4b0"/>
  <!-- Konoha swirl -->
  <g transform="translate(256,256)" fill="none" stroke="#26324a" stroke-width="15" stroke-linecap="round">
    <path d="M14 0 a14 14 0 1 1 -14 -14 a30 30 0 1 1 -30 30 a46 46 0 1 1 46 -46"/>
  </g>
  <path d="M256 205 l9 -26 l9 26 z" fill="#26324a"/>
</svg>
